<svg width="600" height="600" viewBox="0 0 600 600" fill="none" xmlns="http://www.w3.org/2000/svg">
<path d="M200 0H66.6667C29.8477 0 0 29.8477 0 66.6667V200H200V0Z" fill="#2C5282"/>
<path d="M400 0H200V200H400V0Z" fill="#4299E1"/>
<path d="M533.333 0H400V200H600V66.6667C600 29.8477 570.152 0 533.333 0Z" fill="#BEE3F8"/>
<path d="M200 200H0V400H200V200Z" fill="#BEE3F8"/>
<path d="M400 200H200V400H400V200Z" fill="#2C5282"/>
<path d="M600 200H400V400H600V200Z" fill="#4299E1"/>
<path d="M200 400H0V533.333C0 570.152 29.8477 600 66.6667 600H200V400Z" fill="#4299E1"/>
<path d="M400 400H200V600H400V400Z" fill="#BEE3F8"/>
<path d="M600 400H400V600H533.333C570.152 600 600 570.152 600 533.333V400Z" fill="#2C5282"/>
</svg>
